<mxfile host="app.diagrams.net" modified="2024-02-14T11:05:40.080Z" agent="Mozilla/5.0 (Windows NT 10.0; Win64; x64) AppleWebKit/537.36 (KHTML, like Gecko) Chrome/121.0.0.0 Safari/537.36" etag="u0GOs_B3DGa62Mwy1WQi" version="23.1.4" type="device">
  <diagram id="C5RBs43oDa-KdzZeNtuy" name="Page-1">
    <mxGraphModel dx="1290" dy="557" grid="1" gridSize="10" guides="1" tooltips="1" connect="1" arrows="1" fold="1" page="1" pageScale="1" pageWidth="827" pageHeight="1169" math="0" shadow="0">
      <root>
        <mxCell id="WIyWlLk6GJQsqaUBKTNV-0" />
        <mxCell id="WIyWlLk6GJQsqaUBKTNV-1" parent="WIyWlLk6GJQsqaUBKTNV-0" />
        <mxCell id="2oPtb7WiogGyU3O6C7Ju-14" value="Travel Package" style="swimlane;fontStyle=2;align=center;verticalAlign=top;childLayout=stackLayout;horizontal=1;startSize=26;horizontalStack=0;resizeParent=1;resizeLast=0;collapsible=1;marginBottom=0;rounded=0;shadow=0;strokeWidth=1;" vertex="1" parent="WIyWlLk6GJQsqaUBKTNV-1">
          <mxGeometry x="130" y="120" width="300" height="180" as="geometry">
            <mxRectangle x="230" y="140" width="160" height="26" as="alternateBounds" />
          </mxGeometry>
        </mxCell>
        <mxCell id="2oPtb7WiogGyU3O6C7Ju-18" value="" style="line;html=1;strokeWidth=1;align=left;verticalAlign=middle;spacingTop=-1;spacingLeft=3;spacingRight=3;rotatable=0;labelPosition=right;points=[];portConstraint=eastwest;" vertex="1" parent="2oPtb7WiogGyU3O6C7Ju-14">
          <mxGeometry y="26" width="300" height="8" as="geometry" />
        </mxCell>
        <mxCell id="2oPtb7WiogGyU3O6C7Ju-19" value="addDestination&#xa;&#xa;addPassenger&#xa;&#xa;printItinerary&#xa;&#xa;printPassengerList&#xa;&#xa;printAvailableActivities" style="text;align=left;verticalAlign=top;spacingLeft=4;spacingRight=4;overflow=hidden;rotatable=0;points=[[0,0.5],[1,0.5]];portConstraint=eastwest;" vertex="1" parent="2oPtb7WiogGyU3O6C7Ju-14">
          <mxGeometry y="34" width="300" height="146" as="geometry" />
        </mxCell>
        <mxCell id="2oPtb7WiogGyU3O6C7Ju-20" value="" style="endArrow=block;endSize=10;endFill=0;shadow=0;strokeWidth=1;rounded=0;edgeStyle=elbowEdgeStyle;elbow=vertical;" edge="1" parent="WIyWlLk6GJQsqaUBKTNV-1" target="2oPtb7WiogGyU3O6C7Ju-14" source="2oPtb7WiogGyU3O6C7Ju-28">
          <mxGeometry width="160" relative="1" as="geometry">
            <mxPoint x="145" y="600" as="sourcePoint" />
            <mxPoint x="210" y="213" as="targetPoint" />
          </mxGeometry>
        </mxCell>
        <mxCell id="2oPtb7WiogGyU3O6C7Ju-21" value="Activity" style="swimlane;fontStyle=0;align=center;verticalAlign=top;childLayout=stackLayout;horizontal=1;startSize=26;horizontalStack=0;resizeParent=1;resizeLast=0;collapsible=1;marginBottom=0;rounded=0;shadow=0;strokeWidth=1;" vertex="1" parent="WIyWlLk6GJQsqaUBKTNV-1">
          <mxGeometry x="330" y="560" width="292" height="100" as="geometry">
            <mxRectangle x="340" y="380" width="170" height="26" as="alternateBounds" />
          </mxGeometry>
        </mxCell>
        <mxCell id="2oPtb7WiogGyU3O6C7Ju-23" value="" style="line;html=1;strokeWidth=1;align=left;verticalAlign=middle;spacingTop=-1;spacingLeft=3;spacingRight=3;rotatable=0;labelPosition=right;points=[];portConstraint=eastwest;" vertex="1" parent="2oPtb7WiogGyU3O6C7Ju-21">
          <mxGeometry y="26" width="292" height="8" as="geometry" />
        </mxCell>
        <mxCell id="2oPtb7WiogGyU3O6C7Ju-24" value="&lt;div style=&quot;text-align: left;&quot;&gt;&lt;span style=&quot;background-color: initial;&quot;&gt;enrollPassenger&lt;/span&gt;&lt;/div&gt;&lt;div style=&quot;text-align: left;&quot;&gt;&lt;span style=&quot;background-color: initial;&quot;&gt;&lt;br&gt;&lt;/span&gt;&lt;/div&gt;&lt;div style=&quot;text-align: left;&quot;&gt;&lt;span style=&quot;background-color: initial;&quot;&gt;isFull&amp;nbsp;&lt;/span&gt;&lt;br&gt;&lt;/div&gt;" style="text;html=1;align=center;verticalAlign=middle;whiteSpace=wrap;rounded=0;" vertex="1" parent="2oPtb7WiogGyU3O6C7Ju-21">
          <mxGeometry y="34" width="292" height="62" as="geometry" />
        </mxCell>
        <mxCell id="2oPtb7WiogGyU3O6C7Ju-25" value="" style="endArrow=block;endSize=10;endFill=0;shadow=0;strokeWidth=1;rounded=0;edgeStyle=elbowEdgeStyle;elbow=vertical;" edge="1" parent="WIyWlLk6GJQsqaUBKTNV-1" source="2oPtb7WiogGyU3O6C7Ju-21" target="2oPtb7WiogGyU3O6C7Ju-14">
          <mxGeometry width="160" relative="1" as="geometry">
            <mxPoint x="220" y="383" as="sourcePoint" />
            <mxPoint x="320" y="281" as="targetPoint" />
          </mxGeometry>
        </mxCell>
        <mxCell id="2oPtb7WiogGyU3O6C7Ju-26" value="" style="endArrow=classic;html=1;rounded=0;entryX=0.999;entryY=0.378;entryDx=0;entryDy=0;entryPerimeter=0;exitX=-0.017;exitY=1.054;exitDx=0;exitDy=0;exitPerimeter=0;" edge="1" parent="WIyWlLk6GJQsqaUBKTNV-1" target="2oPtb7WiogGyU3O6C7Ju-19" source="2oPtb7WiogGyU3O6C7Ju-42">
          <mxGeometry width="50" height="50" relative="1" as="geometry">
            <mxPoint x="508" y="209.4" as="sourcePoint" />
            <mxPoint x="397.79999999999995" y="210.60600000000002" as="targetPoint" />
          </mxGeometry>
        </mxCell>
        <mxCell id="2oPtb7WiogGyU3O6C7Ju-27" value="enquires about" style="text;html=1;align=center;verticalAlign=middle;whiteSpace=wrap;rounded=0;" vertex="1" parent="WIyWlLk6GJQsqaUBKTNV-1">
          <mxGeometry x="446" y="170" width="60" height="30" as="geometry" />
        </mxCell>
        <mxCell id="2oPtb7WiogGyU3O6C7Ju-34" value="Passenger" style="swimlane;fontStyle=0;align=center;verticalAlign=top;childLayout=stackLayout;horizontal=1;startSize=26;horizontalStack=0;resizeParent=1;resizeLast=0;collapsible=1;marginBottom=0;rounded=0;shadow=0;strokeWidth=1;" vertex="1" parent="WIyWlLk6GJQsqaUBKTNV-1">
          <mxGeometry x="530" y="120" width="242" height="160" as="geometry">
            <mxRectangle x="550" y="140" width="160" height="26" as="alternateBounds" />
          </mxGeometry>
        </mxCell>
        <mxCell id="2oPtb7WiogGyU3O6C7Ju-40" value="" style="line;html=1;strokeWidth=1;align=left;verticalAlign=middle;spacingTop=-1;spacingLeft=3;spacingRight=3;rotatable=0;labelPosition=right;points=[];portConstraint=eastwest;" vertex="1" parent="2oPtb7WiogGyU3O6C7Ju-34">
          <mxGeometry y="26" width="242" height="8" as="geometry" />
        </mxCell>
        <mxCell id="2oPtb7WiogGyU3O6C7Ju-41" value="enrollActivityÂ " style="text;align=left;verticalAlign=top;spacingLeft=4;spacingRight=4;overflow=hidden;rotatable=0;points=[[0,0.5],[1,0.5]];portConstraint=eastwest;" vertex="1" parent="2oPtb7WiogGyU3O6C7Ju-34">
          <mxGeometry y="34" width="242" height="26" as="geometry" />
        </mxCell>
        <mxCell id="2oPtb7WiogGyU3O6C7Ju-42" value="getActivityDetails" style="text;align=left;verticalAlign=top;spacingLeft=4;spacingRight=4;overflow=hidden;rotatable=0;points=[[0,0.5],[1,0.5]];portConstraint=eastwest;" vertex="1" parent="2oPtb7WiogGyU3O6C7Ju-34">
          <mxGeometry y="60" width="242" height="26" as="geometry" />
        </mxCell>
        <mxCell id="2oPtb7WiogGyU3O6C7Ju-43" value="" style="endArrow=block;endSize=10;endFill=0;shadow=0;strokeWidth=1;rounded=0;edgeStyle=elbowEdgeStyle;elbow=vertical;" edge="1" parent="WIyWlLk6GJQsqaUBKTNV-1" target="2oPtb7WiogGyU3O6C7Ju-28">
          <mxGeometry width="160" relative="1" as="geometry">
            <mxPoint x="145" y="600" as="sourcePoint" />
            <mxPoint x="250" y="300" as="targetPoint" />
          </mxGeometry>
        </mxCell>
        <mxCell id="2oPtb7WiogGyU3O6C7Ju-28" value="Destination" style="swimlane;fontStyle=0;align=center;verticalAlign=top;childLayout=stackLayout;horizontal=1;startSize=26;horizontalStack=0;resizeParent=1;resizeLast=0;collapsible=1;marginBottom=0;rounded=0;shadow=0;strokeWidth=1;" vertex="1" parent="WIyWlLk6GJQsqaUBKTNV-1">
          <mxGeometry x="10" y="560" width="230" height="90" as="geometry">
            <mxRectangle x="130" y="380" width="160" height="26" as="alternateBounds" />
          </mxGeometry>
        </mxCell>
        <mxCell id="2oPtb7WiogGyU3O6C7Ju-31" value="" style="line;html=1;strokeWidth=1;align=left;verticalAlign=middle;spacingTop=-1;spacingLeft=3;spacingRight=3;rotatable=0;labelPosition=right;points=[];portConstraint=eastwest;" vertex="1" parent="2oPtb7WiogGyU3O6C7Ju-28">
          <mxGeometry y="26" width="230" height="8" as="geometry" />
        </mxCell>
        <mxCell id="2oPtb7WiogGyU3O6C7Ju-32" value="addActivity" style="text;align=left;verticalAlign=top;spacingLeft=4;spacingRight=4;overflow=hidden;rotatable=0;points=[[0,0.5],[1,0.5]];portConstraint=eastwest;fontStyle=0" vertex="1" parent="2oPtb7WiogGyU3O6C7Ju-28">
          <mxGeometry y="34" width="230" height="26" as="geometry" />
        </mxCell>
        <mxCell id="2oPtb7WiogGyU3O6C7Ju-33" value="getActivities" style="text;align=left;verticalAlign=top;spacingLeft=4;spacingRight=4;overflow=hidden;rotatable=0;points=[[0,0.5],[1,0.5]];portConstraint=eastwest;" vertex="1" parent="2oPtb7WiogGyU3O6C7Ju-28">
          <mxGeometry y="60" width="230" height="26" as="geometry" />
        </mxCell>
      </root>
    </mxGraphModel>
  </diagram>
</mxfile>
